<svg xmlns="http://www.w3.org/2000/svg" viewBox="0 0 160 160" role="img" aria-labelledby="title desc" shape-rendering="crispEdges">
  <title id="title">Cute pixel avatar</title>
  <desc id="desc">Cute retro pixel art man with dark hair, mustache, and green shirt.</desc>
  <rect width="160" height="160" fill="#008080"/>
  <rect x="12" y="12" width="136" height="136" fill="#c0c0c0"/>
  <rect x="20" y="20" width="120" height="120" fill="#000080"/>
  <rect x="28" y="28" width="104" height="104" fill="#87d7ff"/>

  <rect x="48" y="28" width="64" height="16" fill="#171717"/>
  <rect x="40" y="36" width="80" height="16" fill="#171717"/>
  <rect x="32" y="52" width="96" height="8" fill="#171717"/>
  <rect x="32" y="60" width="16" height="32" fill="#171717"/>
  <rect x="112" y="60" width="16" height="32" fill="#171717"/>

  <rect x="40" y="52" width="80" height="56" fill="#f0c7a8"/>
  <rect x="48" y="44" width="64" height="16" fill="#f0c7a8"/>
  <rect x="32" y="68" width="8" height="24" fill="#e2a889"/>
  <rect x="120" y="68" width="8" height="24" fill="#e2a889"/>

  <rect x="56" y="68" width="8" height="8" fill="#101010"/>
  <rect x="96" y="68" width="8" height="8" fill="#101010"/>
  <rect x="48" y="84" width="16" height="8" fill="#ff9ab5"/>
  <rect x="96" y="84" width="16" height="8" fill="#ff9ab5"/>
  <rect x="72" y="76" width="16" height="8" fill="#d28b73"/>

  <rect x="56" y="92" width="16" height="8" fill="#171717"/>
  <rect x="88" y="92" width="16" height="8" fill="#171717"/>
  <rect x="64" y="96" width="32" height="8" fill="#171717"/>
  <rect x="72" y="108" width="16" height="8" fill="#ffffff"/>

  <rect x="40" y="116" width="80" height="16" fill="#33d17a"/>
  <rect x="32" y="132" width="96" height="8" fill="#101010"/>
  <rect x="56" y="116" width="16" height="16" fill="#ffffff"/>
  <rect x="88" y="116" width="16" height="16" fill="#ffffff"/>
  <rect x="72" y="116" width="16" height="24" fill="#000080"/>

  <rect x="28" y="28" width="104" height="8" fill="#ffd447"/>
  <rect x="28" y="124" width="104" height="8" fill="#ffd447"/>
  <rect x="28" y="28" width="8" height="104" fill="#ffd447"/>
  <rect x="124" y="28" width="8" height="104" fill="#ffd447"/>
</svg>
